<svg id="Layer_1" data-name="Layer 1" xmlns="http://www.w3.org/2000/svg" width="1.04in" height="0.63in" viewBox="0 0 75 45"><defs><style>.cls-1{fill:#000;}</style></defs><title>businessgovtnz</title><path class="cls-1" d="M5,5.08a2.7,2.7,0,0,0-2,1.1v4.23a2.75,2.75,0,0,0,2,.69c1.78,0,2.17-1.23,2.17-3,0-2.34-.69-3-2.14-3M2.4,12.18h0l-.3.65H.51V.24H3V4H3a3.54,3.54,0,0,1,2.38-.91c2.88,0,4.36,1.54,4.36,5,0,3.25-1.84,5-4.61,5a4.62,4.62,0,0,1-2.73-.87"/><path class="cls-1" d="M14,13c-2.36,0-3.25-1-3.25-3V3.36h2.45V9.65c0,1.1.37,1.45,1.47,1.45a3.46,3.46,0,0,0,2.49-1.23V3.36h2.45v9.47H17.87l-.33-1.24h0A4.79,4.79,0,0,1,14,13"/><path class="cls-1" d="M26.39,10.12c0-.95-.72-1-2-1.06-2,0-3.7-.52-3.7-3,0-2.15,1.82-3,4.34-3a12.8,12.8,0,0,1,3,.37V5.21a14,14,0,0,0-2.91-.32c-1.21,0-1.93.32-1.93,1,0,1,.84,1,1.91,1,1.84.06,3.79.46,3.79,3,0,2.15-1.91,3.21-4.73,3.21a13.18,13.18,0,0,1-3.25-.48V10.77a16.17,16.17,0,0,0,3.21.41c1.52,0,2.34-.35,2.34-1.06"/><path class="cls-1" d="M30.05,12.83H32.5V3.36H30.05ZM29.9,2.24h2.75v-2H29.9Z"/><path class="cls-1" d="M39.82,3.13c2.36,0,3.25.87,3.25,3v6.74H40.62V6.53c0-1.1-.37-1.45-1.47-1.45a3.46,3.46,0,0,0-2.49,1.23v6.52H34.21V3.36h1.71l.33,1.24h0a4.79,4.79,0,0,1,3.53-1.47"/><path class="cls-1" d="M47.28,5.33A2.49,2.49,0,0,0,46.71,7h3.75c0-.24,0-.37,0-.39a1.77,1.77,0,0,0-.41-1.28,1.8,1.8,0,0,0-1.32-.43,2.08,2.08,0,0,0-1.47.46Zm-.63,3.32a2.66,2.66,0,0,0,.59,2,2.9,2.9,0,0,0,2.19.61,14.08,14.08,0,0,0,3-.37v1.76a13.8,13.8,0,0,1-3.44.48c-3.53,0-4.9-1.65-4.9-5,0-3.84,2.15-5,4.62-5,2.84,0,4.12,1.36,4.12,4.07,0,.33,0,1.08-.09,1.52Z"/><path class="cls-1" d="M59.5,10.12c0-.95-.72-1-2-1.06-2,0-3.7-.52-3.7-3,0-2.15,1.82-3,4.34-3a12.8,12.8,0,0,1,3,.37V5.21a14,14,0,0,0-2.91-.32c-1.21,0-1.93.32-1.93,1,0,1,.84,1,1.91,1,1.84.06,3.79.46,3.79,3,0,2.15-1.91,3.21-4.73,3.21a13.18,13.18,0,0,1-3.25-.48V10.77a16.17,16.17,0,0,0,3.21.41c1.52,0,2.34-.35,2.34-1.06"/><path class="cls-1" d="M67.63,10.12c0-.95-.72-1-2-1.06-2,0-3.7-.52-3.7-3,0-2.15,1.82-3,4.34-3a12.8,12.8,0,0,1,3,.37V5.21a14,14,0,0,0-2.91-.32c-1.21,0-1.93.32-1.93,1,0,1,.84,1,1.91,1,1.84.06,3.79.46,3.79,3,0,2.15-1.91,3.21-4.73,3.21a13.18,13.18,0,0,1-3.25-.48V10.77a16.17,16.17,0,0,0,3.21.41c1.52,0,2.34-.35,2.34-1.06"/><path class="cls-1" d="M6.85,21.3a2.86,2.86,0,0,0-2-.71c-1.63,0-2,1.06-2,2.71,0,2,.67,2.66,2,2.66a2.71,2.71,0,0,0,2-1.11ZM9.3,27.79c0,3.36-2.54,4-4.75,4A12.5,12.5,0,0,1,1,31.33V29.44a13.24,13.24,0,0,0,3.29.43c2.14,0,2.6-.85,2.6-1.91V27h0a3.81,3.81,0,0,1-2.49.89C1.56,27.92.2,26.45.2,23.31s1.5-4.6,4.59-4.6a4.42,4.42,0,0,1,2.62.87h0l.3-.65H9.3Z"/><path class="cls-1" d="M13.4,26.41a2,2,0,0,0,1.5.5,2,2,0,0,0,1.5-.5,3.82,3.82,0,0,0,.71-2.75,3.82,3.82,0,0,0-.71-2.75,2,2,0,0,0-1.5-.5,2,2,0,0,0-1.5.5,3.82,3.82,0,0,0-.71,2.75,3.82,3.82,0,0,0,.71,2.75m1.5,2.28c-2.73,0-4.83-1.1-4.83-5s2.1-5,4.83-5,4.83,1.1,4.83,5-2.1,5-4.83,5"/><path class="cls-1" d="M26.18,22.85l1.37-3.92H30L26.49,28.4h-3l-3.53-9.47h2.64l1.37,3.92c.54,1.54.76,2.28,1.1,3.4h0c.33-1.11.56-1.86,1.1-3.4"/><path class="cls-1" d="M37.48,28.21a7.47,7.47,0,0,1-2.47.37c-2.19,0-3-.72-3-3.36V20.71H30.52V19.13l1.76-.22.61-2.1h1.63v2.12h2.92v1.78H34.51v4.46c0,1.32.39,1.49,1.39,1.49a7.81,7.81,0,0,0,1.58-.2Z"/><path class="cls-1" d="M6.61,35.3c2.36,0,3.25.87,3.25,3V45H7.41V38.7c0-1.1-.37-1.45-1.47-1.45a3.46,3.46,0,0,0-2.49,1.23V45H1V35.52H2.71L3,36.77h0A4.79,4.79,0,0,1,6.61,35.3"/><polygon class="cls-1" points="10.81 44.99 10.81 43.45 15.54 37.44 15.54 37.4 11.16 37.4 11.16 35.52 18.63 35.52 18.63 37.07 13.91 43.08 13.91 43.12 18.63 43.12 18.63 44.99 10.81 44.99"/><path class="cls-1" d="M74.65,11.69a1.53,1.53,0,1,1-1.53-1.53,1.53,1.53,0,0,1,1.53,1.53"/><path class="cls-1" d="M42,27.1a1.53,1.53,0,1,1-1.53-1.53A1.53,1.53,0,0,1,42,27.1"/></svg>