<svg id="Layer_1" data-name="Layer 1" xmlns="http://www.w3.org/2000/svg" width="3.34in" height="1.03in" viewBox="0 0 240.38 74.29"><defs><style>.cls-1{fill:#fff;}</style></defs><title>nzbn_logo--white</title><polygon class="cls-1" points="0 0 0 35.33 3.09 35.33 3.09 8.87 24.02 35.33 27.95 35.33 0 0"/><polygon class="cls-1" points="32.89 74.29 35.98 74.29 35.98 47.84 56.9 74.29 60.84 74.29 32.89 38.96 32.89 74.29"/><polygon class="cls-1" points="27.95 35.34 27.95 1.34 24.88 1.34 24.88 31.42 27.95 35.34"/><polygon class="cls-1" points="36.43 35.34 60.84 35.34 60.84 32.17 38.73 32.17 36.43 35.34"/><polygon class="cls-1" points="57.73 40.21 57.73 70.36 60.81 74.23 60.81 40.21 57.73 40.21"/><polygon class="cls-1" points="32.89 35.35 36.43 35.35 61.04 1.37 32.88 1.37 32.88 4.45 55.09 4.45 32.89 35.35"/><path class="cls-1" d="M23.43,57.37a9.83,9.83,0,0,0-2.2-1.66A8.71,8.71,0,0,0,15.9,40.17H3.11v3.11H15.88a5.6,5.6,0,1,1,.06,11.2H3.11v3.11H16.47a6.78,6.78,0,0,1,0,13.55H3.11v3.11H16.47a9.89,9.89,0,0,0,6.95-16.87"/><rect class="cls-1" y="40.17" width="3.12" height="34.07"/><rect class="cls-1" x="69.53" y="56.89" width="170.5" height="0.3"/><polygon class="cls-1" points="74.74 65.84 74.74 73.41 74.48 73.41 71.27 65.84 69.53 65.84 69.53 74.23 70.46 74.23 70.46 66.67 70.69 66.67 73.95 74.23 75.66 74.23 75.66 65.84 74.74 65.84"/><polygon class="cls-1" points="76.78 65.84 76.78 74.23 81.88 74.23 81.88 73.41 77.71 73.41 77.71 70.37 81.15 70.37 81.15 69.57 77.71 69.57 77.71 66.67 81.88 66.67 81.88 65.84 76.78 65.84"/><polygon class="cls-1" points="91.64 65.84 90.2 73.41 89.85 73.41 88.15 65.92 87.05 65.92 85.35 73.41 85 73.41 83.56 65.84 82.59 65.84 84.31 74.23 86.01 74.23 87.59 67.07 89.19 74.23 90.9 74.23 92.6 65.84 91.64 65.84"/><polygon class="cls-1" points="96.21 65.85 96.21 66.67 100.58 66.67 100.58 66.93 96.21 73.17 96.21 74.24 101.66 74.24 101.66 73.41 97.27 73.41 97.27 73.17 101.66 66.93 101.66 65.85 96.21 65.85"/><polygon class="cls-1" points="102.75 65.84 102.75 74.23 107.86 74.23 107.86 73.41 103.69 73.41 103.69 70.37 107.13 70.37 107.13 69.57 103.69 69.57 103.69 66.67 107.86 66.67 107.86 65.84 102.75 65.84"/><path class="cls-1" d="M111.75,66.64h.63l1.27,4.59h-3.18Zm-.7-.8-2.31,8.39h.92l.6-2.16h3.62l.6,2.16h.92l-2.31-8.39Z"/><polygon class="cls-1" points="116.24 65.84 116.24 74.23 120.86 74.23 120.86 73.4 117.18 73.4 117.18 65.84 116.24 65.84"/><path class="cls-1" d="M124.58,66.64h.63l1.27,4.59h-3.18Zm-.7-.8-2.31,8.39h.92l.6-2.16h3.59l.6,2.16h.92l-2.3-8.39Z"/><polygon class="cls-1" points="134.3 65.84 134.3 73.41 134.04 73.41 130.83 65.84 129.09 65.84 129.09 74.23 130.02 74.23 130.02 66.67 130.25 66.67 133.51 74.23 135.21 74.23 135.21 65.84 134.3 65.84"/><path class="cls-1" d="M139.56,74.23h-3V65.84h3a2.64,2.64,0,0,1,2.72,1.62,6.48,6.48,0,0,1,.39,2.45q0,3.16-1.57,4a3.29,3.29,0,0,1-1.52.33m2.15-4.31q0-2.42-1.08-3a2.18,2.18,0,0,0-1.06-.24h-2.06v6.74h2.06q2.15,0,2.15-3.49"/><path class="cls-1" d="M146.57,66h3a2.8,2.8,0,0,1,1.81.5,1.93,1.93,0,0,1,.59,1.58,2.27,2.27,0,0,1-.27,1.19,1.79,1.79,0,0,1-.78.68,1.83,1.83,0,0,1,1.29,1.93,2.15,2.15,0,0,1-.65,1.75,2.88,2.88,0,0,1-1.88.53h-3.11Zm2.92.8h-2v2.82h2.1a1.47,1.47,0,0,0,1.1-.36,1.5,1.5,0,0,0,.35-1.08,1.32,1.32,0,0,0-.37-1,1.73,1.73,0,0,0-1.16-.32m.1,3.61H147.5v2.95h2.17a1.94,1.94,0,0,0,1.22-.33,1.44,1.44,0,0,0,.42-1.18,1.51,1.51,0,0,0-.17-.75,1,1,0,0,0-.45-.44,2.56,2.56,0,0,0-1.07-.24"/><path class="cls-1" d="M154.07,71.67q0,1.76,1.91,1.76a2.28,2.28,0,0,0,1.49-.42,1.65,1.65,0,0,0,.5-1.34V66h.89v5.68a2.46,2.46,0,0,1-.72,2,3.24,3.24,0,0,1-2.14.61,3.18,3.18,0,0,1-2.13-.61,2.48,2.48,0,0,1-.71-2V66h.91Z"/><path class="cls-1" d="M162.45,66.64q-1.76,0-1.76,1.33a1.15,1.15,0,0,0,.4,1,5.44,5.44,0,0,0,1.65.55,4.18,4.18,0,0,1,1.76.72A1.82,1.82,0,0,1,165,71.7q0,2.51-2.61,2.51a14.57,14.57,0,0,1-2.16-.2l-.42-.06.09-.75a20.37,20.37,0,0,0,2.44.21q1.74,0,1.74-1.63a1.11,1.11,0,0,0-.38-1,3.72,3.72,0,0,0-1.43-.49,4.79,4.79,0,0,1-2-.76,1.9,1.9,0,0,1-.58-1.56q0-2.2,2.63-2.2a14.27,14.27,0,0,1,2.07.18l.4.06-.08.76a22.15,22.15,0,0,0-2.33-.2"/><rect class="cls-1" x="166.21" y="65.97" width="0.91" height="8.15"/><polygon class="cls-1" points="173.56 65.97 173.56 73.33 173.3 73.33 170.19 65.97 168.49 65.97 168.49 74.13 169.4 74.13 169.4 66.77 169.62 66.77 172.79 74.13 174.46 74.13 174.46 65.97 173.56 65.97"/><polygon class="cls-1" points="175.84 65.97 175.84 74.13 180.8 74.13 180.8 73.33 176.75 73.33 176.75 70.38 180.09 70.38 180.09 69.59 176.75 69.59 176.75 66.77 180.8 66.77 180.8 65.97 175.84 65.97"/><path class="cls-1" d="M184.43,66.64q-1.76,0-1.76,1.33a1.15,1.15,0,0,0,.4,1,5.44,5.44,0,0,0,1.65.55,4.18,4.18,0,0,1,1.76.72A1.82,1.82,0,0,1,187,71.7q0,2.51-2.61,2.51a14.58,14.58,0,0,1-2.16-.2l-.42-.06.09-.75a20.37,20.37,0,0,0,2.44.21q1.74,0,1.74-1.63a1.11,1.11,0,0,0-.38-1,3.72,3.72,0,0,0-1.43-.49,4.79,4.79,0,0,1-2-.76,1.9,1.9,0,0,1-.58-1.56q0-2.2,2.63-2.2a14.27,14.27,0,0,1,2.07.18l.4.06-.08.76a22.15,22.15,0,0,0-2.33-.2"/><path class="cls-1" d="M190.68,66.64q-1.76,0-1.76,1.33a1.15,1.15,0,0,0,.4,1,5.44,5.44,0,0,0,1.65.55,4.18,4.18,0,0,1,1.76.72,1.82,1.82,0,0,1,.52,1.45q0,2.51-2.61,2.51a14.57,14.57,0,0,1-2.16-.2l-.41,0,.09-.75a20.37,20.37,0,0,0,2.44.21q1.74,0,1.74-1.63a1.11,1.11,0,0,0-.38-1,3.72,3.72,0,0,0-1.43-.49,4.79,4.79,0,0,1-2-.76A1.9,1.9,0,0,1,188,68q0-2.2,2.63-2.2a14.27,14.27,0,0,1,2.07.18l.4.06-.08.76a22.15,22.15,0,0,0-2.33-.2"/><polygon class="cls-1" points="202.19 65.97 202.19 73.33 201.94 73.33 198.82 65.97 197.13 65.97 197.13 74.13 198.03 74.13 198.03 66.77 198.25 66.77 201.43 74.13 203.08 74.13 203.08 65.97 202.19 65.97"/><path class="cls-1" d="M205.56,71.67q0,1.76,1.91,1.76A2.28,2.28,0,0,0,209,73a1.65,1.65,0,0,0,.5-1.34V66h.89v5.68a2.46,2.46,0,0,1-.72,2,3.24,3.24,0,0,1-2.14.61,3.19,3.19,0,0,1-2.13-.61,2.48,2.48,0,0,1-.71-2V66h.91Z"/><polygon class="cls-1" points="218.17 65.97 215.87 72.86 213.56 65.97 211.93 65.97 211.93 74.13 212.83 74.13 212.83 66.94 212.99 66.94 215.37 73.83 216.38 73.83 218.75 66.94 218.91 66.94 218.91 74.13 219.82 74.13 219.82 65.97 218.17 65.97"/><path class="cls-1" d="M221.44,66h3a2.8,2.8,0,0,1,1.81.5,1.93,1.93,0,0,1,.61,1.57,2.27,2.27,0,0,1-.27,1.19,1.79,1.79,0,0,1-.78.68,1.83,1.83,0,0,1,1.29,1.93,2.15,2.15,0,0,1-.65,1.75,2.88,2.88,0,0,1-1.88.53h-3.11Zm2.92.8h-2v2.82h2.1a1.47,1.47,0,0,0,1.1-.36,1.5,1.5,0,0,0,.35-1.08,1.32,1.32,0,0,0-.37-1,1.72,1.72,0,0,0-1.16-.32m.1,3.61h-2.11v2.95h2.17a1.94,1.94,0,0,0,1.22-.33,1.44,1.44,0,0,0,.42-1.18,1.51,1.51,0,0,0-.17-.75,1,1,0,0,0-.45-.44,2.56,2.56,0,0,0-1.07-.24"/><polygon class="cls-1" points="228.32 65.97 228.32 74.13 233.28 74.13 233.28 73.33 229.23 73.33 229.23 70.38 232.57 70.38 232.57 69.59 229.23 69.59 229.23 66.77 233.28 66.77 233.28 65.97 228.32 65.97"/><path class="cls-1" d="M235.37,71v3.13h-.91V66h3a2.79,2.79,0,0,1,2,.6,2.43,2.43,0,0,1,.65,1.88,2.19,2.19,0,0,1-1.49,2.37l1.56,3.31h-1L237.67,71Zm2.13-.8a1.71,1.71,0,0,0,0-3.43h-2.11V70.2Z"/><polygon class="cls-1" points="88.61 19.6 80.19 4.99 71.74 19.58 69.53 19.58 80.2 1.14 90.83 19.61 88.61 19.6"/><polygon class="cls-1" points="71.74 29.08 80.16 43.69 88.61 29.1 90.83 29.1 80.16 47.54 69.53 29.08 71.74 29.08"/><path class="cls-1" d="M190.68,47.33V41l2.27-.05,4.21,6.35H199l-4.71-7.13,4.5-6H197l-4,5.42-2.24.05V28.33h-1.64V47.38Zm-9.43,0h1.55V37.46a18.93,18.93,0,0,1,5-2V33.9a14,14,0,0,0-5,2.16V34.17h-1.55Zm-7.84-1.13c-3.42,0-3.9-1.6-3.9-5.64s.87-5.26,3.9-5.26,3.89,1.31,3.89,5.26-.5,5.64-3.89,5.64m0-12.29c-4.08,0-5.52,2-5.52,6.66,0,5,1.1,7,5.52,7s5.5-2,5.5-7c0-4.66-1.44-6.66-5.5-6.66m-24.85.26,3.29,13.17h2.71l3.13-10.84,3.11,10.84h2.74l3.29-13.16h-1.6L162.33,46h-.39l-3.42-11.53h-1.65L153.44,46h-.37l-2.9-11.79Zm-6.21.21a34.92,34.92,0,0,0-4.66-.45c-2.29,0-4.66.84-4.66,3.71,0,2.56,1.39,3.11,4.42,3.58s3.74.79,3.74,2.37c0,2-1.31,2.58-3.58,2.58a42.19,42.19,0,0,1-4.29-.45l-.1,1.39a37.86,37.86,0,0,0,4.5.47c3.16,0,5.08-1,5.08-4.08,0-2.53-1.26-3.13-4.63-3.68-2.87-.47-3.53-.87-3.53-2.24,0-1.78,1.47-2.24,3.11-2.24a40.11,40.11,0,0,1,4.55.42Zm-11.16,0a34.9,34.9,0,0,0-4.66-.45c-2.29,0-4.66.84-4.66,3.71,0,2.56,1.39,3.11,4.42,3.58S130,42,130,43.58c0,2-1.31,2.58-3.58,2.58a42.19,42.19,0,0,1-4.29-.45l-.11,1.39a37.86,37.86,0,0,0,4.5.47c3.16,0,5.08-1,5.08-4.08,0-2.53-1.26-3.13-4.63-3.68-2.87-.47-3.53-.87-3.53-2.24,0-1.78,1.47-2.24,3.11-2.24a40.11,40.11,0,0,1,4.55.42Zm-19.76,5.72c0-3.5,1.42-4.81,3.82-4.81s3.61,1.26,3.61,4.81Zm3.66,6.08c-2.77,0-3.66-1.65-3.66-4.76h8.94l.05-1.26c0-4.42-1.78-6.24-5.18-6.24-3.21,0-5.42,1.81-5.42,6.9,0,4.39,1.18,6.77,5.1,6.79,2,0,5-.37,5-.37l0-1.28s-2.9.24-4.81.24m-5.77,1.15V45.85H101V29H99.32V47.33Z"/><path class="cls-1" d="M239.93,6.47A34.9,34.9,0,0,0,235.27,6c-2.29,0-4.66.84-4.66,3.71,0,2.56,1.39,3.11,4.42,3.58s3.74.79,3.74,2.37c0,2-1.31,2.58-3.58,2.58a42.19,42.19,0,0,1-4.29-.45l-.1,1.39a37.86,37.86,0,0,0,4.5.47c3.16,0,5.08-1,5.08-4.08,0-2.53-1.26-3.13-4.63-3.68-2.87-.47-3.53-.87-3.53-2.24,0-1.79,1.47-2.24,3.11-2.24a40.11,40.11,0,0,1,4.55.42Zm-11.16,0A34.9,34.9,0,0,0,224.11,6c-2.29,0-4.66.84-4.66,3.71,0,2.56,1.39,3.11,4.42,3.58s3.74.79,3.74,2.37c0,2-1.31,2.58-3.58,2.58a42.22,42.22,0,0,1-4.29-.45l-.1,1.39a37.86,37.86,0,0,0,4.5.47c3.16,0,5.08-1,5.08-4.08,0-2.53-1.26-3.13-4.63-3.68-2.87-.47-3.53-.87-3.53-2.24,0-1.79,1.47-2.24,3.11-2.24a40.11,40.11,0,0,1,4.55.42ZM209,12.18c0-3.5,1.42-4.81,3.82-4.81s3.61,1.26,3.61,4.81Zm3.66,6.08c-2.77,0-3.66-1.65-3.66-4.76H218l.05-1.26C218,7.81,216.21,6,212.82,6c-3.21,0-5.42,1.81-5.42,6.9,0,4.39,1.18,6.77,5.1,6.79,2,0,5-.37,5-.37L217.46,18s-2.9.24-4.81.24m-15.54,1.16V8.52a9.67,9.67,0,0,1,4-1.1c2.64,0,3,1.29,3,5.16v6.84h1.57V12.5c0-4.81-.79-6.5-4.39-6.5a10.37,10.37,0,0,0-4.2,1.22v-1h-1.55v13.2ZM191.69,3h1.55V1h-1.55Zm0,16.45h1.55V6.26h-1.55Zm-2.61-13A34.92,34.92,0,0,0,184.42,6c-2.29,0-4.66.84-4.66,3.71,0,2.56,1.39,3.11,4.42,3.58s3.74.79,3.74,2.37c0,2-1.31,2.58-3.58,2.58a42.19,42.19,0,0,1-4.28-.43l-.1,1.39a37.86,37.86,0,0,0,4.5.47c3.16,0,5.08-1,5.08-4.08,0-2.53-1.26-3.13-4.63-3.68-2.87-.47-3.53-.87-3.53-2.24,0-1.79,1.47-2.24,3.11-2.24a40.11,40.11,0,0,1,4.59.44Zm-12.74-.21v10.9a8.27,8.27,0,0,1-3.87,1.1c-2.63,0-3-1.23-3-5.16V6.26h-1.55v6.87c0,4.92.74,6.56,4.39,6.56a9,9,0,0,0,4-1.23v1h1.55V6.26Zm-16.22,12c-.79,0-2.63-.16-2.63-.16V8.31a10.89,10.89,0,0,1,4-.89c2.53,0,3.19,1.63,3.19,5.21,0,3.9-.63,5.64-4.52,5.64M161.64,6a11,11,0,0,0-4.11,1V.42h-1.58V19.47s2.56.26,4.21.26c4.84,0,6.16-1.95,6.16-7,0-4.66-1.1-6.63-4.68-6.63M140,12.27c0-3.5,1.42-4.81,3.82-4.81s3.61,1.26,3.61,4.81Zm3.66,6.08c-2.77,0-3.66-1.65-3.66-4.76H149l.05-1.26c0-4.42-1.79-6.24-5.18-6.24-3.21,0-5.42,1.81-5.42,6.9,0,4.39,1.18,6.77,5.1,6.79,2,0,5-.37,5-.37l-.05-1.29s-2.9.24-4.81.24m-12.19,1.07H133V9.55a18.94,18.94,0,0,1,5-2V6a14,14,0,0,0-5,2.16V6.26h-1.55Zm-7.28-1.13c-3.42,0-3.89-1.6-3.89-5.64s.87-5.26,3.89-5.26,3.9,1.31,3.9,5.26-.5,5.64-3.9,5.64M124.2,6c-4.08,0-5.52,2-5.52,6.66,0,5,1.1,7,5.52,7s5.5-2,5.5-7C129.71,8,128.26,6,124.2,6M99.33,19.42H101V2.81h.37l5.74,16H109l5.74-16h.37V19.42h1.63V1.12h-3l-5.64,16-5.66-16h-3Z"/></svg>