<?xml version="1.0" encoding="utf-8"?>
<!-- Generator: Adobe Illustrator 21.1.0, SVG Export Plug-In . SVG Version: 6.00 Build 0)  -->


<svg version="1.1" id="Layer_1" xmlns="http://www.w3.org/2000/svg" xmlns:xlink="http://www.w3.org/1999/xlink" x="0px" y="0px" viewBox="0 0 48 48" enable-background="new 0 0 48 48" xml:space="preserve">
    <g>
        <style type="text/css">
            .st0{fill:#ffffff;}
        </style>
        <path class="st0" d="M24,31.7c-1.2,0-2.2,1-2.2,2.2c0,1.2,1,2.2,2.2,2.2c1.2,0,2.2-1,2.2-2.2C26.2,32.6,25.2,31.7,24,31.7z M25.5,11.1h-3v17h3
        V11.1z" />
    </g>
    <g>
        <path class="st0" d="M24,3.1c11.5,0,20.9,9.4,20.9,20.9c0,11.5-9.4,20.9-20.9,20.9C12.5,44.9,3.1,35.5,3.1,24C3.1,12.5,12.5,3.1,24,3.1 M24,1
        C11.3,1,1,11.3,1,24c0,12.7,10.3,23,23,23c12.7,0,23-10.3,23-23C47,11.3,36.7,1,24,1L24,1z" />
    </g>
</svg>
