<svg xmlns="http://www.w3.org/2000/svg" viewBox="0 0 48 48">
  <title>z</title>
  <g id="bell-icon">
<style type="text/css">
	.st0{fill:#ffffff;}
</style>
<path  class="st0" d="M46.94,37.83c-2.25,0-5.34-3.56-5.35-5.58V22.36A17,17,0,0,0,29,6.33a4.54,4.54,0,0,0-9.06-.13h0A16.68,16.68,0,0,0,7.34,22V32.26c0,1.75-1.31,5.58-5.2,5.58v2H16.46a8.06,8.06,0,0,0,16,0H46.94ZM24.47,4A2.5,2.5,0,0,1,26.9,5.84a13.86,13.86,0,0,0-2.43-.23,18,18,0,0,0-2.41.16A2.5,2.5,0,0,1,24.47,4Zm0,41a6.06,6.06,0,0,1-6-5.17h12A6.06,6.06,0,0,1,24.47,45ZM7,37.83a8.32,8.32,0,0,0,2.33-5.58V22A14.68,14.68,0,0,1,20.47,8.13a14.71,14.71,0,0,1,4-.52,15.16,15.16,0,0,1,4,.65,15,15,0,0,1,11.12,14.1v9.89c0,1.76,1.28,4,3,5.58Z"/>
  </g>
</svg>
