<?xml version="1.0" encoding="utf-8"?>
<!-- Generator: Adobe Illustrator 21.1.0, SVG Export Plug-In . SVG Version: 6.00 Build 0)  -->
<svg version="1.1" id="Layer_1" xmlns="http://www.w3.org/2000/svg" xmlns:xlink="http://www.w3.org/1999/xlink" x="0px" y="0px"
	 viewBox="0 0 48 48" enable-background="new 0 0 48 48" xml:space="preserve">
<g>
	<path d="M36.3,19.3c-2.5,0-4.9,0.9-6.7,2.3c3.3-10.5,13.5-10.9,14.1-11c0.8,0,1.4-0.7,1.4-1.4c0-0.8-0.7-1.4-1.4-1.4c0,0,0,0,0,0
		c-0.2,0-4.6,0.1-9,2.8c-7.2,4.4-8.8,12-8.9,17.8c0,0.4-0.1,0.8-0.1,1.2c0,5.7,4.8,10.4,10.7,10.4S47,35.5,47,29.7
		C47,24,42.2,19.3,36.3,19.3z"/>
	<path d="M11.7,19.3c-2.6,0-5,0.9-6.9,2.5C8.1,11.1,18.5,10.7,19,10.7c0.8,0,1.4-0.7,1.4-1.4c0-0.8-0.7-1.4-1.4-1.4c0,0,0,0,0,0
		c-0.2,0-4.6,0.1-9.1,2.8C2.5,15.2,1,23.2,1,29.1c0,0.1,0,0.1,0,0.1c0,0.2,0,0.3,0,0.5c0,5.7,4.8,10.4,10.7,10.4s10.7-4.6,10.7-10.4
		C22.3,24,17.6,19.3,11.7,19.3z"/>
</g>
</svg>
