<?xml version="1.0" encoding="utf-8"?>
<!-- Generator: Adobe Illustrator 19.1.0, SVG Export Plug-In . SVG Version: 6.00 Build 0)  -->
<svg version="1.1" id="Layer_1" xmlns="http://www.w3.org/2000/svg" xmlns:xlink="http://www.w3.org/1999/xlink" x="0px" y="0px"
	 viewBox="0 0 48 48" style="enable-background:new 0 0 48 48;" xml:space="preserve">
<title>z</title>
<g>
	<g>
		<path d="M21.1,28.9h6v-5.8h-6V28.9z M30.5,28.9h6v-5.8h-6V28.9z M11.8,37.9h6v-5.8h-6V37.9z M21.1,37.9h6v-5.8h-6V37.9z
			 M30.5,37.9h6v-5.8h-6V37.9z M14.9,12.1c1.4,0,2.6-1.2,2.6-2.5v-6c0-1.4-1.2-2.5-2.6-2.5s-2.6,1.2-2.6,2.5v6
			C12.2,11,13.4,12.1,14.9,12.1z M40.1,6.6H37v3.7c0,2.3-1.9,3.9-4.1,3.9h-1c-2.2,0-4.1-1.8-4.1-3.9V6.6h-8.2v3.7
			c0,2.3-1.9,3.9-4.1,3.9h-1c-2.2,0-4.1-1.8-4.1-3.9V6.6H8.2c-2.4,0-4.6,2.1-4.6,4.6v31.3c0,2.5,1.9,4.6,4.6,4.6h31.7
			c2.4,0,4.6-2.1,4.6-4.6V11.2C44.6,8.7,42.5,6.6,40.1,6.6z M39.4,38.3c0,1.6-1.2,2.8-2.9,2.8H12c-1.4,0-2.9-1.2-2.9-2.8V22.5
			c0-1.6,1.2-3,2.9-3h24.7c1.4,0,2.9,1.4,2.9,3v15.9H39.4z M32.6,12.1c1.4,0,2.6-1.2,2.6-2.5v-6c0-1.4-1.2-2.5-2.6-2.5
			c-1.4,0-2.6,1.2-2.6,2.5v6C30,11,31.2,12.1,32.6,12.1z"/>
	</g>
</g>
</svg>
