<svg xmlns="http://www.w3.org/2000/svg" viewBox="0 0 48 48">
  <title>_</title>
  <g id="camera-icon">
    <path d="M44.7,42H3.38A2.53,2.53,0,0,1,1,39.46V14.76A2.73,2.73,0,0,1,3.43,12h7.28c.57,0,.95-.15,1-.3l1.52-4.22A3.76,3.76,0,0,1,16.77,5H31.24a3.76,3.76,0,0,1,3.53,2.48l1.54,4.27a1.43,1.43,0,0,0,1,.25h7.33A2.67,2.67,0,0,1,47,14.71V39.53A2.45,2.45,0,0,1,44.7,42ZM3.43,14a1,1,0,0,0-.43.76V39.46c0,.27.24.54.38.54H44.7a.52.52,0,0,0,.3-.47V14.71a.92.92,0,0,0-.39-.71H37.29a2.88,2.88,0,0,1-2.84-1.51L32.88,8.16A1.75,1.75,0,0,0,31.24,7H16.77a1.75,1.75,0,0,0-1.65,1.16l-1.54,4.28A2.88,2.88,0,0,1,10.71,14Z"/>
    <path d="M24,35A10,10,0,1,1,34,25,10,10,0,0,1,24,35Zm0-18a8,8,0,1,0,8,8A8,8,0,0,0,24,17Z"/>
  </g>
</svg>
