<svg xmlns="http://www.w3.org/2000/svg" viewBox="0 0 48 48">
	<g>
		<style>.st0{fill:#000}</style>
		<path class="st0" d="M30.42 3L39 10.29V45H8V3h22.42m.74-2H6v46h35V9.36L31.16 1z"/>
		<path class="st0" d="M39 12.05h-9v-10h2v8h7v2zm-21.84 9.79a6.68 6.68 0 0 1 2 .28v1.07a7 7 0 0 0-1.79-.26c-1.54 0-2.33.63-2.33 3.13s.79 3.08 2.33 3.08a7.06 7.06 0 0 0 2-.31V30a7 7 0 0 1-2.21.34c-2.25 0-3.54-1.12-3.54-4.22s1.21-4.28 3.54-4.28zm8.16 6c0-1.12-.74-1.22-1.91-1.27-1.49-.06-2.68-.5-2.68-2.33s1.44-2.4 3.25-2.4a8.11 8.11 0 0 1 2.11.28v1.07a7.86 7.86 0 0 0-2.1-.26c-1.21 0-1.85.41-1.85 1.19 0 1.09.76 1.1 1.89 1.16 1.43.07 2.72.47 2.72 2.44s-1.56 2.58-3.46 2.58a8.26 8.26 0 0 1-2.44-.3v-1.17a9.59 9.59 0 0 0 2.44.31c1.5 0 2.03-.53 2.03-1.3zM34.6 22l-2.81 8.14h-1.73L27.27 22h1.46l1.39 4.18c.28.84.58 1.82.82 2.64.24-.82.56-1.8.83-2.64L33.19 22z"/>
	</g>
</svg>