<?xml version="1.0" encoding="utf-8"?>
<!-- Generator: Adobe Illustrator 19.1.0, SVG Export Plug-In . SVG Version: 6.00 Build 0)  -->
<svg version="1.1" id="Layer_1" xmlns="http://www.w3.org/2000/svg" xmlns:xlink="http://www.w3.org/1999/xlink" x="0px" y="0px"
	 viewBox="0 0 48 48" style="enable-background:new 0 0 48 48;" xml:space="preserve">
<title>z</title>
<path d="M24.2,46c-12.1,0-22-9.9-22-22s9.9-22,22-22c12.1,0,22,9.9,22,22S36.3,46,24.2,46z M24.2,4.6C13.5,4.6,4.8,13.3,4.8,24
	s8.7,19.4,19.4,19.4c10.7,0,19.4-8.7,19.4-19.4S34.9,4.6,24.2,4.6z M24.2,28.7c-2.6,0-4.7-2.1-4.7-4.7s2.1-4.7,4.7-4.7
	c0.8,0,1.6,0.2,2.3,0.6l8.1-8.1l1.8,1.8l-8.1,8.1c0.4,0.7,0.6,1.5,0.6,2.3C29,26.6,26.8,28.7,24.2,28.7z M24.2,21.8
	c-1.2,0-2.2,1-2.2,2.2c0,1.2,1,2.2,2.2,2.2c1.2,0,2.2-1,2.2-2.2C26.4,22.8,25.4,21.8,24.2,21.8z M41,24h-2.6c0-2.7-0.8-5.3-2.2-7.6
	l2.2-1.4C40.1,17.7,41,20.8,41,24z M10,24H7.4c0-9.3,7.6-16.8,16.8-16.8c3.2,0,6.3,0.9,9,2.6L31.8,12c-2.3-1.4-4.9-2.2-7.6-2.2
	C16.4,9.8,10,16.1,10,24z"/>
</svg>
