<?xml version="1.0" encoding="utf-8"?>
<!-- Generator: Adobe Illustrator 21.1.0, SVG Export Plug-In . SVG Version: 6.00 Build 0)  -->
<svg version="1.1" id="Layer_1" xmlns="http://www.w3.org/2000/svg" xmlns:xlink="http://www.w3.org/1999/xlink" x="0px" y="0px"
	 viewBox="0 0 48 48" enable-background="new 0 0 48 48" xml:space="preserve">
<g>
	<path fill-rule="evenodd" clip-rule="evenodd" d="M24.5,41c-0.1,0-0.4,0-0.6-0.2L3.3,16.6c-0.4-0.4-0.4-1-0.1-1.4
		C3.4,15.1,3.6,15,3.8,15c0.2,0,0.4,0.1,0.6,0.2l20.1,20.7l20.1-20.7c0.2-0.2,0.4-0.2,0.6-0.2c0.2,0,0.4,0.1,0.6,0.2
		c0.4,0.4,0.4,0.9,0,1.3L25,40.8C24.9,41,24.6,41,24.5,41z"/>
	<path fill="#0E1D25" d="M17,30.3l5.4,5.5l2.1,2.2l2.1-2.2l5.3-5.5l-7.5,8.8L17,30.3 M45.2,13.5c-0.6,0-1.2,0.2-1.6,0.7l-19,19.6
		l-19-19.6c-0.5-0.5-1-0.7-1.6-0.7c-0.6,0-1.2,0.2-1.6,0.7c-0.9,0.9-0.9,2.4,0,3.4l20.7,24.2c0.4,0.5,1,0.7,1.6,0.7s1.2-0.2,1.6-0.7
		l20.7-24.2c0.9-0.9,0.9-2.4,0-3.4C46.4,13.7,45.8,13.5,45.2,13.5L45.2,13.5z"/>
</g>
</svg>
