<svg xmlns="http://www.w3.org/2000/svg" viewBox="0 0 48 48">
  <title>z</title>
  <g id="firm-icon">
    <g>
  	<style type="text/css">
		.st0{fill:#000;}
	</style>
      <path class="st0" d="M47,3H1A1,1,0,0,0,0,4V6.53A2.5,2.5,0,0,0,2,9V43.54A2.45,2.45,0,0,0,4.43,46H43.57A2.45,2.45,0,0,0,46,43.54V9a2.5,2.5,0,0,0,2-2.44V4A1,1,0,0,0,47,3ZM2,5H46V6.53a.48.48,0,0,1-.47.47H2.47A.48.48,0,0,1,2,6.53ZM33,34V44H25V34ZM13.6,32c.34-2.26,1.78-4,3.5-4H30.9c1.72,0,3.16,1.74,3.5,4ZM23,34V44H15V34ZM43.57,44H35V34h.5a1,1,0,0,0,1-1c0-3.87-2.52-7-5.62-7H17.1c-3.1,0-5.62,3.13-5.62,7a1,1,0,0,0,1,1H13V44H4.43A.45.45,0,0,1,4,43.54V9H44V43.54A.45.45,0,0,1,43.57,44Z"/>
      <path class="st0" d="M15,15H7a1,1,0,0,0-1,1v6a1,1,0,0,0,1,1h8a1,1,0,0,0,1-1V16A1,1,0,0,0,15,15Zm-1,6H8V17h6Z"/>
      <path class="st0" d="M28,15H20a1,1,0,0,0-1,1v6a1,1,0,0,0,1,1h8a1,1,0,0,0,1-1V16A1,1,0,0,0,28,15Zm-1,6H21V17h6Z"/>
      <path class="st0" d="M41,15H33a1,1,0,0,0-1,1v6a1,1,0,0,0,1,1h8a1,1,0,0,0,1-1V16A1,1,0,0,0,41,15Zm-1,6H34V17h6Z"/>
    </g>
  </g>
</svg>
