<svg xmlns="http://www.w3.org/2000/svg" viewBox="0 0 48 48">
  <title>z</title>
  <g id="forms-fees-icon">
    <g>
      <path d="M37.07,39.1V1H5V41a6,6,0,0,0,6,6H37a5.89,5.89,0,0,0,5.64-6V39.1ZM14.64,40.83c0,2-1.56,4.17-3.64,4.17a4,4,0,0,1-4-4V3H35.07V39.1H14.64ZM37,45H15.07a6.69,6.69,0,0,0,1.56-3.9h24A3.91,3.91,0,0,1,37,45Z"/>
      <path d="M22.14,22.38H20.29c-.95,0-1.79-1.26-1.79-2.25h-2c0,2,1.58,4.19,3.71,4.24v1.8h2V24.37a3.78,3.78,0,0,0-.07-7.57H20.29a1.79,1.79,0,0,1,0-3.57h1.86a1.62,1.62,0,0,1,1.79,1.55h2a3.58,3.58,0,0,0-3.71-3.55V9.45h-2v1.79a3.78,3.78,0,0,0,.07,7.57h1.86a1.79,1.79,0,0,1,0,3.57Z"/>
      <rect x="13" y="29.99" width="17" height="2.02"/>
      <rect x="15.04" y="34.04" width="13.92" height="1.92"/>
    </g>
  </g>
</svg>
