<svg xmlns="http://www.w3.org/2000/svg" viewBox="0 0 48 48">
  <title>z</title>
  <g id="help-icon">
    <path d="M12.44,47.26a1,1,0,0,1-1-1.13l1.19-9a18.68,18.68,0,0,1,7.3-35.83h8.82a18.68,18.68,0,0,1,0,37.36H24.67L13,47.06A1,1,0,0,1,12.44,47.26Zm7.49-44a16.67,16.67,0,0,0-5.84,32.26,1,1,0,0,1,.64,1.07l-1,7.49,10-7.27a1,1,0,0,1,.59-.19h4.41a16.68,16.68,0,0,0,0-33.35Z"/>
    <path d="M24.21,24.79a1,1,0,0,1-1-1c0-1.87,1.34-2.88,2.51-3.77,1.35-1,2.62-2,2.62-4.26a3.59,3.59,0,0,0-1-2.69A4.82,4.82,0,0,0,24.24,12c-.37,0-3.9.35-3.9,3.8a1,1,0,0,1-2,0c0-4.33,3.8-5.68,5.81-5.8a6.86,6.86,0,0,1,4.6,1.66,5.5,5.5,0,0,1,1.59,4.14c0,3.28-2,4.77-3.41,5.86-1.1.83-1.72,1.34-1.72,2.18A1,1,0,0,1,24.21,24.79Z"/>
    <circle cx="24.34" cy="28.66" r="1"/>
  </g>
</svg>
