<?xml version="1.0" encoding="utf-8"?>
<!-- Generator: Adobe Illustrator 19.1.0, SVG Export Plug-In . SVG Version: 6.00 Build 0)  -->
<svg version="1.1" id="Layer_1" xmlns="http://www.w3.org/2000/svg" xmlns:xlink="http://www.w3.org/1999/xlink" x="0px" y="0px"
	 viewBox="0 0 24 24" width="24" height="24" style="enable-background:new 0 0 24 24;" xml:space="preserve">
<style type="text/css">
	.st0{fill:#000;}
</style>
<path class="st0" d="M2.9,0c1.6,0,2.9,1.3,2.9,2.9S4.5,5.8,2.9,5.8C1.3,5.8,0,4.5,0,2.9S1.3,0,2.9,0z M18.1,7.6c0.3,0,0.7,0,1.1,0
	c2.2,0.1,4.6,1.9,4.7,5.9c0.1,3.3,0,8.6,0,10.5h-5c0-2,0-6.1,0-9c0-1.3-0.6-3.1-2.7-3.1c-2.3,0-2.9,2.2-2.9,3.1c0,2.8,0,7.2,0,9h-5
	c0-3,0-13.1,0-16c2.6,0,3.8,0,4.7,0c0,0.9,0,1.6,0,2.3c0.8-1.6,2.9-2.6,3.8-2.6C17.5,7.6,17.8,7.6,18.1,7.6z M0.4,8.1h5V24h-5V8.1z"
	/>
</svg>
