<?xml version="1.0" encoding="utf-8"?>
<!-- Generator: Adobe Illustrator 21.1.0, SVG Export Plug-In . SVG Version: 6.00 Build 0)  -->
<svg version="1.1" id="Layer_1" xmlns="http://www.w3.org/2000/svg" xmlns:xlink="http://www.w3.org/1999/xlink" x="0px" y="0px"
	 viewBox="0 0 48 48" enable-background="new 0 0 48 48" xml:space="preserve">
<g>
	<g>
		<path fill-rule="evenodd" clip-rule="evenodd" d="M24,18.3c-3.2,0-5.7,2.6-5.7,5.8c0,3.2,2.6,5.8,5.7,5.8c3.2,0,5.8-2.6,5.8-5.8
			C29.8,20.8,27.2,18.3,24,18.3z M24,12.5c3.2,0,5.8-2.6,5.8-5.7C29.8,3.6,27.2,1,24,1c-3.2,0-5.7,2.6-5.7,5.8
			C18.2,9.9,20.8,12.5,24,12.5z M24,35.5c-3.2,0-5.7,2.6-5.7,5.8S20.8,47,24,47c3.2,0,5.8-2.6,5.8-5.7S27.2,35.5,24,35.5z"/>
	</g>
</g>
</svg>
