<svg xmlns="http://www.w3.org/2000/svg" viewBox="0 0 48 48">
  <title>_</title>
  <g id="pdf-icon">
    <g>
      <path d="M35.57,29a1.23,1.23,0,0,0-.35-.62c-.48-.49-1.53-.74-3.13-.77a24.91,24.91,0,0,0-3.76.29,9.75,9.75,0,0,1-1.74-1.25,13.26,13.26,0,0,1-3.15-5.06l.12-.51a34.15,34.15,0,0,0,.55-5.93,1.66,1.66,0,0,0-.1-.42L24,14.59a1.37,1.37,0,0,0-1.23-1h-.38a1.39,1.39,0,0,0-1.42.93c-.45,1.74,0,4.35.87,7.73l-.22.55c-.61,1.55-1.37,3.1-2,4.47l-.09.18c-.71,1.44-1.36,2.66-1.94,3.7l-.6.33s-1.08.59-1.32.74c-2.06,1.27-3.42,2.72-3.65,3.87a1,1,0,0,0,.35,1.05l.58.31a1.75,1.75,0,0,0,.8.19c1.47,0,3.17-1.89,5.51-6.13a53.36,53.36,0,0,1,8.49-2.09,14.29,14.29,0,0,0,6.19,2,2.64,2.64,0,0,0,.73-.09,1.26,1.26,0,0,0,.72-.51A2.81,2.81,0,0,0,35.57,29ZM13.33,36.49a10.47,10.47,0,0,1,2.89-3.58c.1-.08.34-.32.56-.54C15.14,35.08,14,36.16,13.33,36.49ZM22.6,14.38c.47,0,.74,1.23.76,2.38a5,5,0,0,1-.56,2.56,13,13,0,0,1-.4-3.2S22.38,14.38,22.6,14.38ZM19.83,30.14c.33-.61.67-1.25,1-1.93a36.89,36.89,0,0,0,1.79-4,13.23,13.23,0,0,0,3,3.79l.46.39A36.45,36.45,0,0,0,19.83,30.14ZM34.77,30a2.07,2.07,0,0,1-.82.15,9.4,9.4,0,0,1-3.41-1.07c.57,0,1.1-.07,1.57-.07a5.81,5.81,0,0,1,2,.22C34.9,29.46,34.91,29.91,34.77,30Z"/>
      <path d="M30.42,3,39,10.29V45H8V3H30.42m.73-2H6V47H41V9.36L31.16,1Z"/>
      <polygon points="39 12.05 30 12.05 30 2.05 32 2.05 32 10.05 39 10.05 39 12.05"/>
    </g>
  </g>
</svg>
