<svg xmlns="http://www.w3.org/2000/svg" viewBox="0 0 48 48">
	<g>
		<style>.st0{fill:#000}</style>
		<path class="st0" d="M30.42,3,39,10.29V45H8V3H30.42m.74-2H6V47H41V9.36L31.16,1Z"/>
		<polygon class="st0" points="39 12.05 30 12.05 30 2.05 32 2.05 32 10.05 39 10.05 39 12.05"/>
		<path class="st0" d="M14.4,31.14H13V23H16a3.32,3.32,0,0,1,2.49.66,2.84,2.84,0,0,1,.66,2,2.86,2.86,0,0,1-.66,2,3.32,3.32,0,0,1-2.49.66H14.4Zm1.52-3.83c.69,0,1.07,0,1.37-.32a1.79,1.79,0,0,0,.36-1.3,1.8,1.8,0,0,0-.39-1.31c-.3-.3-.65-.31-1.34-.31H14.4v3.24Z"/>
		<path class="st0" d="M26,30.31a3.33,3.33,0,0,1-2.55.83h-3V23h2.91a3.52,3.52,0,0,1,2.67.88,4.4,4.4,0,0,1,1,3.19A4.35,4.35,0,0,1,26,30.31ZM24.9,24.52a1.84,1.84,0,0,0-1.41-.45H21.85v6h1.63a1.89,1.89,0,0,0,1.4-.43,3.54,3.54,0,0,0,.71-2.57A3.59,3.59,0,0,0,24.9,24.52Z"/>
		<path class="st0" d="M28.69,31.14V23h5.22v1.07H30.06v2.39H33.3v1.07H30.06v3.61Z"/>
	</g>
</svg>