<svg xmlns="http://www.w3.org/2000/svg" viewBox="0 0 48 48">
  <title>_</title>
  <g id="phone-icon">
    <path d="M40,47l-.45,0c-5.67-.66-16.52-3-25.4-11.47l-1.62-1.62,0,0C4.11,24.95,1.73,14.1,1.07,8.43a3.85,3.85,0,0,1,2.44-4l8.23-3.19a2.41,2.41,0,0,1,3,1.09l5.78,10.62a2.42,2.42,0,0,1-.43,2.87L14.8,21a.5.5,0,0,0-.06.64,54.38,54.38,0,0,0,5.3,6.6,49.65,49.65,0,0,0,6.37,5.06A.49.49,0,0,0,27,33.2l5.18-5.28a2.42,2.42,0,0,1,2.87-.43L45.7,33.28a2.41,2.41,0,0,1,1.09,3L43.6,44.49A3.85,3.85,0,0,1,40,47ZM13.92,32.5l1.59,1.59C24,42.13,34.36,44.4,39.79,45a1.94,1.94,0,0,0,2-1.23L45,35.57a.5.5,0,0,0-.23-.61L34.16,29.17a.5.5,0,0,0-.59.09l-5.18,5.28a2.4,2.4,0,0,1-3.05.32,51.47,51.47,0,0,1-6.65-5.3,56.24,56.24,0,0,1-5.53-6.87,2.41,2.41,0,0,1,.3-3.08l5.28-5.18a.5.5,0,0,0,.09-.59L13,3.22A.5.5,0,0,0,12.43,3L4.2,6.18A1.94,1.94,0,0,0,3,8.21C3.61,13.64,5.87,24,13.92,32.5Z"/>
    <g>
      <path d="M47,19.42H45A16.48,16.48,0,0,0,28.58,3V1A18.39,18.39,0,0,1,47,19.42Z"/>
      <path d="M41.46,19.42H39.54a11,11,0,0,0-11-11V6.54A12.89,12.89,0,0,1,41.46,19.42Z"/>
      <path d="M36,19.42H34A5.47,5.47,0,0,0,28.58,14V12A7.38,7.38,0,0,1,36,19.42Z"/>
    </g>
  </g>
</svg>
