<svg xmlns="http://www.w3.org/2000/svg" viewBox="0 0 48 48">
  <title>_</title>
  <g id="quote-icon">
    <g>
      <path d="M36.33,19.35a10.81,10.81,0,0,0-6.69,2.3C33,11.11,43.18,10.7,43.7,10.69a1.4,1.4,0,1,0,0-2.79h0a19.66,19.66,0,0,0-9,2.81c-7.16,4.36-8.83,12-8.92,17.85a10.19,10.19,0,0,0-.07,1.17A10.67,10.67,0,1,0,36.33,19.35Z"/>
      <path d="M11.67,19.35a10.8,10.8,0,0,0-6.9,2.46C8.08,11.12,18.49,10.7,19,10.69A1.4,1.4,0,1,0,19,7.9h0a20,20,0,0,0-9.06,2.8C2.46,15.2,1,23.17,1,29.08c0,.05,0,.1,0,.15s0,.33,0,.5A10.52,10.52,0,0,0,11.67,40.1a10.38,10.38,0,1,0,0-20.75Z"/>
    </g>
  </g>
</svg>
