<svg xmlns="http://www.w3.org/2000/svg" viewBox="0 0 48 48">
  <title>_</title>
  <g id="register-address-icon">
    <path d="M24,47a1,1,0,0,1-.63-.23c-.69-.56-16.87-14-16.87-28.43A17,17,0,0,1,24,1,17,17,0,0,1,41.5,18.34c0,13-16.14,27.78-16.83,28.4A1,1,0,0,1,24,47ZM24,3C15,3,8.5,9.45,8.5,18.34,8.5,30.29,20.93,42,24,44.66,27,41.77,39.5,29.1,39.5,18.34,39.5,9.45,33,3,24,3Zm0,23.83a8.33,8.33,0,1,1,8.33-8.33A8.34,8.34,0,0,1,24,26.83Zm0-14.67a6.33,6.33,0,1,0,6.33,6.33A6.34,6.34,0,0,0,24,12.17Z"/>
  </g>
</svg>
