<svg xmlns="http://www.w3.org/2000/svg" viewBox="0 0 48 48"><title>removed-icon</title><path d="M47,24A23,23,0,1,1,24,1,23,23,0,0,1,47,24ZM3.71,24A20.29,20.29,0,1,0,24,3.71,20.32,20.32,0,0,0,3.71,24Zm35.18,0A14.9,14.9,0,0,1,24,38.88a14.7,14.7,0,0,1-6.84-1.73l-1.64-.85L36.29,15.53l.85,1.64A14.7,14.7,0,0,1,38.88,24ZM20.15,35.5a11.53,11.53,0,0,0,3.85.67A12.19,12.19,0,0,0,36.18,24a11.55,11.55,0,0,0-.67-3.85ZM32.47,11.7,11.7,32.47l-.85-1.64A14.69,14.69,0,0,1,9.12,24,14.9,14.9,0,0,1,24,9.12a14.71,14.71,0,0,1,6.84,1.73Zm-20,16.15L27.85,12.49A11.54,11.54,0,0,0,24,11.82,12.19,12.19,0,0,0,11.82,24,11.57,11.57,0,0,0,12.5,27.85Z"/></svg>