<svg xmlns="http://www.w3.org/2000/svg" viewBox="0 0 48 48"><title>success-icon</title><g id="success-icon"><path d="M44.65,2.84H3.35A2.35,2.35,0,0,0,1,5.18V35.47a2.35,2.35,0,0,0,2.35,2.35h5V46a1,1,0,0,0,1.56.77l11.67-9H44.65A2.35,2.35,0,0,0,47,35.47V5.18A2.35,2.35,0,0,0,44.65,2.84Zm.41,32.64a.41.41,0,0,1-.41.41H21.25a1,1,0,0,0-.59.2l-10.37,8V36.85a1,1,0,0,0-1-1h-6a.41.41,0,0,1-.41-.41V5.18a.41.41,0,0,1,.41-.41h41.3a.41.41,0,0,1,.41.41Z"/><path d="M21,25.34,16.64,21l-1.37,1.38,5.08,5.06a1,1,0,0,0,1.37,0l11-11-1.37-1.38Z"/></g></svg>