<svg xmlns="http://www.w3.org/2000/svg" viewBox="0 0 48 48">
  <title>_</title>
  <g id="tip-icon">
    <path d="M24,47.08a6.53,6.53,0,0,1-6.52-6.52V38.38a10,10,0,0,0-2.6-6.53,12,12,0,1,1,18.2.05h0a9.93,9.93,0,0,0-2.56,6.48v2.18A6.53,6.53,0,0,1,24,47.08Zm-4.52-7.36v.84a4.52,4.52,0,1,0,9,0v-.84Zm0-2h9.08a12,12,0,0,1,3-7.14h0A10,10,0,0,0,22.85,14a10.11,10.11,0,0,0-8.76,8.36,10,10,0,0,0,2.31,8.16A12.09,12.09,0,0,1,19.46,37.72ZM47,26.84H39.64v-2H47Zm-38.64,0H1v-2H8.36Zm29-13.33L35.95,12.1l5.2-5.2L42.57,8.3Zm-27.49,0L4.67,8.3,6.08,6.89l5.2,5.2ZM25,8.36H23V1h2Z"/>
  </g>
</svg>
