<svg xmlns="http://www.w3.org/2000/svg" viewBox="0 0 48 48">
	<g>
		<style>.st0{fill:#000}</style>
		<path class="st0" d="M30.42,3,39,10.29V45H8V3H30.42m.74-2H6V47H41V9.36L31.16,1Z"/>
		<polygon class="st0" points="39 12.05 30 12.05 30 2.05 32 2.05 32 10.05 39 10.05 39 12.05"/>
		<path class="st0" d="M14.63,22l1.86,2.88L18.35,22h1.53l-2.63,4L20,30.14H18.4l-1.95-3-1.93,3H13L15.7,26l-2.65-4Z"/>
		<path class="st0" d="M26.2,30.14H21V22h1.37v7.07H26.2Z"/>
		<path class="st0" d="M31.54,27.84c0-1.12-.75-1.22-1.91-1.27-1.5-.06-2.69-.5-2.69-2.33s1.44-2.4,3.25-2.4a8.11,8.11,0,0,1,2.11.28v1.07a7.84,7.84,0,0,0-2.09-.26c-1.22,0-1.85.41-1.85,1.19,0,1.09.75,1.1,1.88,1.16,1.44.07,2.72.47,2.72,2.44S31.4,30.3,29.51,30.3A8.32,8.32,0,0,1,27.06,30V28.83a9.71,9.71,0,0,0,2.45.31C31,29.14,31.54,28.61,31.54,27.84Z"/>
	</g>
</svg>