<?xml version="1.0" encoding="utf-8"?>
<!-- Generator: Adobe Illustrator 19.1.0, SVG Export Plug-In . SVG Version: 6.00 Build 0)  -->
<svg version="1.1" id="YouTube_Icon" xmlns="http://www.w3.org/2000/svg" xmlns:xlink="http://www.w3.org/1999/xlink" x="0px"
	 y="0px" viewBox="0 0 34.1 24" width="34" height="24" style="enable-background:new 0 0 34.1 24;" xml:space="preserve">
<style type="text/css">
	.st0{opacity:0.12;fill-rule:evenodd;clip-rule:evenodd;}
	.st1{fill:#FFFFFF;}
</style>
<path id="The_Sharpness" class="st0" d="M13.5,6.9l8.1,5.4l1.1-0.6L13.5,6.9z"/>
<g id="Lozenge">
	<g>
		<path class="st1" d="M33.7,5.2c0,0-0.3-2.3-1.4-3.4c-1.3-1.4-2.7-1.4-3.4-1.4C24.2,0,17,0,17,0h0c0,0-7.2,0-11.9,0.3
			C4.4,0.5,3,0.5,1.7,1.8c-1,1-1.4,3.4-1.4,3.4S0,8,0,10.7v2.6c0,2.8,0.3,5.5,0.3,5.5s0.3,2.3,1.4,3.4c1.3,1.4,3,1.3,3.8,1.5
			C8.2,23.9,17,24,17,24s7.2,0,11.9-0.4c0.7-0.1,2.1-0.1,3.4-1.4c1-1,1.4-3.4,1.4-3.4s0.3-2.8,0.3-5.5v-2.6
			C34.1,8,33.7,5.2,33.7,5.2z M13.5,16.4l0-9.6l9.2,4.8L13.5,16.4z"/>
	</g>
</g>
</svg>
